<?xml version="1.0" encoding="utf-8"?>
<!-- Generator: Adobe Illustrator 24.2.0, SVG Export Plug-In . SVG Version: 6.00 Build 0)  -->
<svg version="1.1" id="Layer_1" xmlns="http://www.w3.org/2000/svg" xmlns:xlink="http://www.w3.org/1999/xlink" x="0px" y="0px"
	 viewBox="0 0 648 360" enable-background="new 0 0 648 360" xml:space="preserve">
<g>
	<linearGradient id="SVGID_1_" gradientUnits="userSpaceOnUse" x1="-241.7636" y1="141.9184" x2="-384.6698" y2="15.4504">
		<stop  offset="0" style="stop-color:#FBB714"/>
		<stop  offset="1" style="stop-color:#CA8C2F"/>
		<stop  offset="1" style="stop-color:#CA8C2F"/>
		<stop  offset="1" style="stop-color:#2D2A2B"/>
	</linearGradient>
	<path fill="url(#SVGID_1_)" d="M-245.68-16.437c1.64-0.3,3.3-0.24,4.97-0.11c-18.89,3.94-38.12,11-51.84,25.1
		c-11.08,10.97-16.6,26.75-16.34,42.2c-0.19,21.09,7.78,41.1,16.46,59.96c7.43,16.57,15.45,33.51,16.62,51.92
		c0.77,8.72-1.8,18.18-8.55,24.1c-5.45,4.79-12.74,7.21-19.93,7.49c-16.45,0.74-32.81-2.88-48.22-8.37
		c-14.12-4.95-27.45-11.79-40.73-18.59c9.22-0.58,18.86,0.58,27.72-2.66c4.04-1.38,7.12-5.61,6.33-9.95c-0.91-6-4.66-11.08-8.6-15.5
		c-17.64-19.46-41.24-33.03-66.27-40.58c-4.32-1.3-8.71-2.4-13.17-3.06c19.86-1.83,40.3-0.14,59.09,6.86
		c16.71,6.05,30.98,17.1,43.74,29.23c-7.72-14.91-13.33-31.11-15.18-47.86c-1.05-13.86-0.87-28.38,5.16-41.21
		c7.34-16.82,21.98-29.19,37.81-37.8C-294.67-6.967-270.19-13.077-245.68-16.437z"/>
</g>
<path fill="#2B3789" d="M-648.25,223.513c5.66,0.07,11.32-0.12,16.97,0.08c4.72,0.11,8.33,4.02,9.8,8.23
	c7.67,21.08,15.15,42.23,22.88,63.29c8.28-23.91,16.9-47.7,25.24-71.58c3.18-0.02,6.36-0.02,9.54-0.03
	c-10.85,30.62-21.64,61.26-32.5,91.87c-4.16-0.02-8.31-0.01-12.46-0.01c-10.01-27.75-19.94-55.53-29.96-83.27
	c-1.38-4.1-5.24-6.94-9.53-7.22L-648.25,223.513z"/>
<g>
	<path fill="#2B3789" d="M-250.17,223.953c7.47-0.05,14.94-0.05,22.42,0c-1.04,2.91-0.62,5.93,0.38,8.77
		c7.8,24.5,15.6,49.01,23.43,73.51c0.98,3.41,2.85,6.48,5.38,8.97c-4.87,0.19-9.77,0.34-14.63-0.01c-4.14-0.88-6.55-4.95-7.91-8.64
		c-2.48-7.24-4.73-14.56-7.2-21.8c-1.23-3.8-5.19-6.23-9.09-6.26c-6.51-0.14-13.02,0.03-19.53-0.05
		c-4.09,12.28-8.06,24.61-12.09,36.91c-3.37,0.01-6.74,0.01-10.1,0c3.91-12.49,7.97-24.94,11.8-37.45c-4.6-0.98-9.41-2.17-13.1-5.24
		c-1.94-3.05-3.54-6.34-4.72-9.76c5.9,4.11,13.07,5.67,20.15,6.11C-260.04,253.993-255.09,238.983-250.17,223.953z M-243.86,234.963
		c-3.62,11.36-7.34,22.68-11.04,34.02c7.58,0.39,15.32-0.85,22.76,0.96C-236.12,258.303-239.91,246.603-243.86,234.963z"/>
</g>
<path fill="#2B3789" d="M-552.63,224.853c5.41-0.01,10.82,0,16.23-0.01c0.07,26.97-0.04,53.95,0.05,80.92
	c-0.3,3.92,1.93,7.33,5.22,9.27c-4.97,0.55-10.01,0.42-15,0.18c-4.41-0.56-6.58-5.43-6.48-9.43
	C-552.65,278.803-552.61,251.823-552.63,224.853z"/>
<path fill="#2B3789" d="M-521.63,224.953c7.84-0.24,15.67-0.02,23.51-0.13c16.11,22.28,32.15,44.62,48.24,66.93
	c-0.05-22.3-0.04-44.6-0.01-66.9c2.99,0,5.99-0.01,8.99-0.01c-0.01,26.91-0.03,53.81,0.02,80.71c-0.28,4.09,2.59,7.15,5.4,9.68
	c-5.6,0.24-11.2,0.09-16.8,0.1c-18.21-25.35-36.56-50.6-54.78-75.95c-0.04,25.32-0.05,50.65,0,75.97c-3.01,0-6.01,0-9.02,0.01
	c-0.04-23.88-0.01-47.76-0.01-71.65c-0.04-4.32,0.36-8.84-1.35-12.92C-518.34,228.523-520.1,226.793-521.63,224.953z"/>
<g>
	<path fill="#2B3789" d="M-430.28,224.933c11.31-0.19,22.63-0.06,33.94-0.06c8.61,0.06,17.99,1.27,24.72,7.14
		c6.67,5.85,8.08,15.68,6.37,23.99c-1.36,6.55-6.38,11.91-12.54,14.3c-9.65,4.08-20.31,2.47-30.47,2.77
		c0.04,11.27-0.18,22.55,0.1,33.82c0.1,3.58,2.9,6.07,5.54,8.08c-4.9,0.75-9.89,0.31-14.83,0.32c-4.79-0.11-7.26-5.35-7.23-9.57
		c-0.08-21.33-0.03-42.66-0.02-63.98C-424.38,235.723-425.12,228.863-430.28,224.933z M-408.22,232.603
		c-0.12,10.95-0.05,21.9-0.04,32.84c7-0.31,14.64,1.12,21.02-2.54c4.95-2.77,6.62-8.87,6.33-14.2c-0.06-5.43-1.65-11.86-7.04-14.34
		C-394.34,231.623-401.48,232.953-408.22,232.603z"/>
</g>
<path fill="#2B3789" d="M-356.6,225.003c16.74-0.37,33.5-0.03,50.25-0.17c3.45-0.12,7.49,0.23,9.75,3.21
	c1.3,3.37,1.41,7.1,1.89,10.65c-2.42-2.22-5.2-4.38-8.68-4.26c-10.39-0.17-20.79-0.02-31.18-0.06c-0.01,9.99,0.01,19.98-0.01,29.97
	c12,0.07,24,0,36,0.04c0,3.17,0.01,6.35,0,9.53c-11.99,0.01-23.99-0.01-35.99,0.02c-0.01,10.65,0,21.31,0,31.96
	c11.76,0,23.53,0.05,35.3-0.01c3.25,0.28,5.51-2.2,7.4-4.45c-0.3,3.93-0.62,7.88-1.37,11.75c-1.76,1.92-4.62,2.16-7.07,2.18
	c-16.89-0.01-33.78-0.01-50.66,0c0.02-24.89-0.03-49.79,0.02-74.68C-350.71,234.993-351.67,228.583-356.6,225.003z"/>
<g>
	<path fill="#2B3789" d="M-192.99,224.873c12.87-0.02,25.74-0.08,38.6,0.04c8.51,0.05,17.43,3.21,22.77,10.1
		c5.14,6.43,5.44,15.56,2.89,23.11c-2.25,6.51-8.43,10.52-14.67,12.67c3.64,2.27,6.95,5.13,9.34,8.73
		c6.22,9.27,10.91,19.47,17.25,28.66c1.85,2.84,4.48,5.01,7.36,6.75c-5.58,0.82-11.31,0.44-16.92,0.24
		c-6.47-0.66-9.37-7.12-12.55-11.88c-5.17-7.85-8.7-16.88-15.27-23.72c-4.37-4.69-11.18-3.82-16.96-3.82
		c-0.01,13.2-0.02,26.39,0.01,39.59c-5.45,0.03-10.9,0.01-16.34,0.01c-0.01-25.9,0.21-51.81-0.04-77.72
		C-187.45,232.793-189.29,228.053-192.99,224.873z M-171.14,232.563c-0.02,11.16-0.03,22.32-0.01,33.49
		c6.03-0.39,12.33,0.94,18.15-1.05c11.84-4.53,13.57-23.93,2.47-30.2C-156.84,231.333-164.28,232.873-171.14,232.563z"/>
</g>
<path fill="#2B3789" d="M-103.89,224.913c4.86,0,9.74-0.29,14.6,0.1c4.6,0.66,7.32,5.42,7.23,9.77
	c-0.08,23.71-0.05,47.41-0.04,71.12c14.12,0.02,28.25-0.01,42.37,0.02c-0.39,3.14-0.81,6.28-1.18,9.42
	c-19.15,0.05-38.29-0.02-57.43,0.03c-0.03-25.89,0.2-51.78-0.03-77.67C-98.32,232.863-100.05,228.003-103.89,224.913z"/>
<g>
	<linearGradient id="SVGID_2_" gradientUnits="userSpaceOnUse" x1="426.2364" y1="172.5263" x2="283.3302" y2="46.0583">
		<stop  offset="0" style="stop-color:#FBB714"/>
		<stop  offset="1" style="stop-color:#CA8C2F"/>
		<stop  offset="1" style="stop-color:#CA8C2F"/>
		<stop  offset="1" style="stop-color:#2D2A2B"/>
	</linearGradient>
	<path fill="url(#SVGID_2_)" d="M422.32,14.171c1.64-0.3,3.3-0.24,4.97-0.11c-18.89,3.94-38.12,11-51.84,25.1
		c-11.08,10.97-16.6,26.75-16.34,42.2c-0.19,21.09,7.78,41.1,16.46,59.96c7.43,16.57,15.45,33.51,16.62,51.92
		c0.77,8.72-1.8,18.18-8.55,24.1c-5.45,4.79-12.74,7.21-19.93,7.49c-16.45,0.74-32.81-2.88-48.22-8.37
		c-14.12-4.95-27.45-11.79-40.73-18.59c9.22-0.58,18.86,0.58,27.72-2.66c4.04-1.38,7.12-5.61,6.33-9.95c-0.91-6-4.66-11.08-8.6-15.5
		c-17.64-19.46-41.24-33.03-66.27-40.58c-4.32-1.3-8.71-2.4-13.17-3.06c19.86-1.83,40.3-0.14,59.09,6.86
		c16.71,6.05,30.98,17.1,43.74,29.23c-7.72-14.91-13.33-31.11-15.18-47.86c-1.05-13.86-0.87-28.38,5.16-41.21
		c7.34-16.82,21.98-29.19,37.81-37.8C373.33,23.641,397.81,17.531,422.32,14.171z"/>
</g>
<path fill="#2B3789" d="M19.75,254.121c5.66,0.07,11.32-0.12,16.97,0.08c4.72,0.11,8.33,4.02,9.8,8.23
	c7.67,21.08,15.15,42.23,22.88,63.29c8.28-23.91,16.9-47.7,25.24-71.58c3.18-0.02,6.36-0.02,9.54-0.03
	c-10.85,30.62-21.64,61.26-32.5,91.87c-4.16-0.02-8.31-0.01-12.46-0.01c-10.01-27.75-19.94-55.53-29.96-83.27
	c-1.38-4.1-5.24-6.94-9.53-7.22L19.75,254.121z"/>
<g>
	<path fill="#2B3789" d="M417.83,254.561c7.47-0.05,14.94-0.05,22.42,0c-1.04,2.91-0.62,5.93,0.38,8.77
		c7.8,24.5,15.6,49.01,23.43,73.51c0.98,3.41,2.85,6.48,5.38,8.97c-4.87,0.19-9.77,0.34-14.63-0.01c-4.14-0.88-6.55-4.95-7.91-8.64
		c-2.48-7.24-4.73-14.56-7.2-21.8c-1.23-3.8-5.19-6.23-9.09-6.26c-6.51-0.14-13.02,0.03-19.53-0.05
		c-4.09,12.28-8.06,24.61-12.09,36.91c-3.37,0.01-6.74,0.01-10.1,0c3.91-12.49,7.97-24.94,11.8-37.45c-4.6-0.98-9.41-2.17-13.1-5.24
		c-1.94-3.05-3.54-6.34-4.72-9.76c5.9,4.11,13.07,5.67,20.15,6.11C407.96,284.601,412.91,269.591,417.83,254.561z M424.14,265.571
		c-3.62,11.36-7.34,22.68-11.04,34.02c7.58,0.39,15.32-0.85,22.76,0.96C431.88,288.911,428.09,277.211,424.14,265.571z"/>
</g>
<path fill="#2B3789" d="M115.37,255.461c5.41-0.01,10.82,0,16.23-0.01c0.07,26.97-0.04,53.95,0.05,80.92
	c-0.3,3.92,1.93,7.33,5.22,9.27c-4.97,0.55-10.01,0.42-15,0.18c-4.41-0.56-6.58-5.43-6.48-9.43
	C115.35,309.411,115.39,282.431,115.37,255.461z"/>
<path fill="#2B3789" d="M146.37,255.561c7.84-0.24,15.67-0.02,23.51-0.13c16.11,22.28,32.15,44.62,48.24,66.93
	c-0.05-22.3-0.04-44.6-0.01-66.9c2.99,0,5.99-0.01,8.99-0.01c-0.01,26.91-0.03,53.81,0.02,80.71c-0.28,4.09,2.59,7.15,5.4,9.68
	c-5.6,0.24-11.2,0.09-16.8,0.1c-18.21-25.35-36.56-50.6-54.78-75.95c-0.04,25.32-0.05,50.65,0,75.97c-3.01,0-6.01,0-9.02,0.01
	c-0.04-23.88-0.01-47.76-0.01-71.65c-0.04-4.32,0.36-8.84-1.35-12.92C149.66,259.131,147.9,257.401,146.37,255.561z"/>
<g>
	<path fill="#2B3789" d="M237.72,255.541c11.31-0.19,22.63-0.06,33.94-0.06c8.61,0.06,17.99,1.27,24.72,7.14
		c6.67,5.85,8.08,15.68,6.37,23.99c-1.36,6.55-6.38,11.91-12.54,14.3c-9.65,4.08-20.31,2.47-30.47,2.77
		c0.04,11.27-0.18,22.55,0.1,33.82c0.1,3.58,2.9,6.07,5.54,8.08c-4.9,0.75-9.89,0.31-14.83,0.32c-4.79-0.11-7.26-5.35-7.23-9.57
		c-0.08-21.33-0.03-42.66-0.02-63.98C243.62,266.331,242.88,259.471,237.72,255.541z M259.78,263.211
		c-0.12,10.95-0.05,21.9-0.04,32.84c7-0.31,14.64,1.12,21.02-2.54c4.95-2.77,6.62-8.87,6.33-14.2c-0.06-5.43-1.65-11.86-7.04-14.34
		C273.66,262.231,266.52,263.561,259.78,263.211z"/>
</g>
<path fill="#2B3789" d="M311.4,255.611c16.74-0.37,33.5-0.03,50.25-0.17c3.45-0.12,7.49,0.23,9.75,3.21
	c1.3,3.37,1.41,7.1,1.89,10.65c-2.42-2.22-5.2-4.38-8.68-4.26c-10.39-0.17-20.79-0.02-31.18-0.06c-0.01,9.99,0.01,19.98-0.01,29.97
	c12,0.07,24,0,36,0.04c0,3.17,0.01,6.35,0,9.53c-11.99,0.01-23.99-0.01-35.99,0.02c-0.01,10.65,0,21.31,0,31.96
	c11.76,0,23.53,0.05,35.3-0.01c3.25,0.28,5.51-2.2,7.4-4.45c-0.3,3.93-0.62,7.88-1.37,11.75c-1.76,1.92-4.62,2.16-7.07,2.18
	c-16.89-0.01-33.78-0.01-50.66,0c0.02-24.89-0.03-49.79,0.02-74.68C317.29,265.601,316.33,259.191,311.4,255.611z"/>
<g>
	<path fill="#2B3789" d="M475.01,255.481c12.87-0.02,25.74-0.08,38.6,0.04c8.51,0.05,17.43,3.21,22.77,10.1
		c5.14,6.43,5.44,15.56,2.89,23.11c-2.25,6.51-8.43,10.52-14.67,12.67c3.64,2.27,6.95,5.13,9.34,8.73
		c6.22,9.27,10.91,19.47,17.25,28.66c1.85,2.84,4.48,5.01,7.36,6.75c-5.58,0.82-11.31,0.44-16.92,0.24
		c-6.47-0.66-9.37-7.12-12.55-11.88c-5.17-7.85-8.7-16.88-15.27-23.72c-4.37-4.69-11.18-3.82-16.96-3.82
		c-0.01,13.2-0.02,26.39,0.01,39.59c-5.45,0.03-10.9,0.01-16.34,0.01c-0.01-25.9,0.21-51.81-0.04-77.72
		C480.55,263.401,478.71,258.661,475.01,255.481z M496.86,263.171c-0.02,11.16-0.03,22.32-0.01,33.49
		c6.03-0.39,12.33,0.94,18.15-1.05c11.84-4.53,13.57-23.93,2.47-30.2C511.16,261.941,503.72,263.481,496.86,263.171z"/>
</g>
<path fill="#2B3789" d="M564.11,255.521c4.86,0,9.74-0.29,14.6,0.1c4.6,0.66,7.32,5.42,7.23,9.77c-0.08,23.71-0.05,47.41-0.04,71.12
	c14.12,0.02,28.25-0.01,42.37,0.02c-0.39,3.14-0.81,6.28-1.18,9.42c-19.15,0.05-38.29-0.02-57.43,0.03
	c-0.03-25.89,0.2-51.78-0.03-77.67C569.68,263.471,567.95,258.611,564.11,255.521z"/>
<g>
	<path fill="#2B3789" d="M-483.08,345.713c4.77-0.11,10.92-0.9,14.08,3.56c3.29,4.9,0.33,11.62-5.05,13.43
		c3.47,4.41,6.61,9.07,10.38,13.23c-1.62-0.01-3.24-0.02-4.85-0.02c-3.41-4.49-6.47-9.24-10.16-13.51
		c-1.12,4.42-0.49,9.04-0.3,13.54c-1.37,0-2.73,0.01-4.09,0.02C-482.66,365.893-482.66,355.783-483.08,345.713z M-479.2,348.723
		c-0.07,3.9-0.07,7.8-0.01,11.71c1.79-0.28,3.74-0.27,5.27-1.35c3.12-1.83,3.46-7.13,0.38-9.14
		C-475.2,348.783-477.3,348.943-479.2,348.723z"/>
</g>
<path fill="#2B3789" d="M-461.46,345.803c4.73-0.06,9.47-0.01,14.21-0.05c-0.01,0.88-0.04,2.64-0.05,3.52
	c-3.38-0.44-6.78-0.46-10.17-0.35c-0.01,3.32,0,6.65,0.01,9.98c3.11,0.03,6.22,0.02,9.32-0.08c0,1.13,0,2.26,0,3.41
	c-3.11-0.15-6.22-0.15-9.32-0.12c-0.01,3.49-0.01,6.98,0,10.48c3.55,0.08,7.11,0.1,10.66-0.18c-0.03,0.88-0.08,2.64-0.11,3.52
	c-4.79,0-9.58-0.01-14.37,0.01C-461.17,365.903-460.83,355.833-461.46,345.803z"/>
<path fill="#2B3789" d="M-439.87,347.123c2.65-1.92,6.07-1.6,9.15-1.48c0.06,0.97,0.17,2.92,0.23,3.9c-2.22-0.57-4.8-1.24-6.85,0.18
	c-2.16,1.16-2.46,4.23-1.28,6.19c2.25,3.12,6.08,4.77,8.01,8.17c2.07,3.54,1.05,8.68-2.6,10.77c-3.12,2.04-7.01,1.47-10.46,0.89
	c0.03-1.34,0.06-2.68,0.09-4.01c2.36,1.18,5.26,1.94,7.72,0.53c2.42-1.2,3.12-4.56,1.59-6.73c-2.13-2.81-5.43-4.49-7.48-7.39
	C-444.22,354.783-443.46,349.413-439.87,347.123z"/>
<g>
	<path fill="#2B3789" d="M-415.05,345.903c6.32-1.79,13.83,0.57,17.2,6.39c4.52,7.3,2.1,18.2-5.71,22.2
		c-7.47,4.28-18.16,0.98-21.47-7.08C-429.06,359.143-424.12,347.993-415.05,345.903z M-414.89,349.373c-3.63,1.36-6.4,4.65-7.2,8.43
		c-2.11,7.29,3.96,15.82,11.78,15.16c7.38-0.14,12.34-8.27,10.48-15.1C-400.98,351.193-408.57,346.893-414.89,349.373z"/>
</g>
<g>
	<path fill="#2B3789" d="M-391.02,345.713c4.75-0.1,10.94-0.92,14.08,3.58c3.27,4.87,0.32,11.6-5.03,13.41
		c3.42,4.43,6.63,9.03,10.32,13.24c-1.61-0.01-3.22-0.02-4.82-0.03c-3.67-4.29-6.07-9.85-10.62-13.25
		c-0.23,4.42-0.14,8.85,0.15,13.27c-1.03,0.01-3.09,0.03-4.11,0.04C-390.57,365.893-390.6,355.783-391.02,345.713z M-387.2,348.733
		c-0.07,3.9-0.07,7.8,0.02,11.7c1.78-0.28,3.7-0.3,5.27-1.31c3.13-1.88,3.52-7.26,0.31-9.24
		C-383.24,348.763-385.33,348.953-387.2,348.733z"/>
</g>
<path fill="#2B3789" d="M-372.06,345.763c7.3,0.02,14.59,0.01,21.88,0.02c0.01,1.17,0.02,2.34,0.05,3.52
	c-3.03-0.45-6.08-0.48-9.13-0.42c0.12,9.02-0.28,18.05,0.27,27.06c-1.42,0-2.83,0-4.25,0.01c0.42-9.01,0.1-18.04,0.21-27.05
	c-3.06-0.1-6.13-0.05-9.15,0.38C-372.15,348.403-372.09,346.643-372.06,345.763z"/>
<g>
	<path fill="#2B3789" d="M-333.95,349.133c2.4-5.04,11.08-5.09,12.77,0.54c1.36,4.48-2.54,7.87-5.7,10.27
		c2.18,2.61,4.42,5.18,6.72,7.7c1.24-2.42,2.3-4.91,3.2-7.47c1.2,0,2.4,0,3.6,0.01c-1.26,3.34-2.68,6.63-4.56,9.67
		c2.05,2.1,4.16,4.13,6.35,6.09c-1.55-0.02-3.1-0.02-4.64-0.02c-1.26-1.2-2.51-2.4-3.75-3.61c-2.59,2.31-5.75,4.43-9.4,4.13
		c-4.23,0.13-8.34-3.39-8.27-7.74c-0.14-4.11,3.02-7.11,6-9.43C-333.69,356.413-335.85,352.633-333.95,349.133z M-330.68,350.143
		c-1.4,2.67,0.59,5.39,2,7.57c1.88-1.83,4.87-3.83,4.14-6.88C-325.13,347.943-329.4,347.613-330.68,350.143z M-333.06,371.263
		c2.83,3.73,8.36,2.01,10.88-1.17c-2.65-2.69-5.19-5.49-7.58-8.41C-332.62,363.773-335.58,367.813-333.06,371.263z"/>
</g>
<path fill="#2B3789" d="M-301.29,345.693c1.54,0,3.08,0.01,4.62,0.02c2.47,7.8,6.21,15.12,8.72,22.91
	c2.68-7.69,6.33-15.01,8.72-22.8c1.49-0.04,2.98-0.07,4.48-0.09c-4.7,10.18-8.66,20.69-13.26,30.92
	C-292.67,366.443-296.53,355.873-301.29,345.693z"/>
<path fill="#2B3789" d="M-271.92,345.763c1.42-0.03,2.84-0.06,4.27-0.08c-0.42,10.07-0.51,20.2,0.04,30.26c-1.44,0-2.87,0-4.3,0.02
	C-271.5,365.913-271.49,355.813-271.92,345.763z"/>
<path fill="#2B3789" d="M-261.53,345.753c1.45,0.01,2.9,0.02,4.37,0.04c-0.77,8.9-0.17,17.86-0.35,26.8
	c3.54,0.1,7.09,0.12,10.62-0.26c-0.04,0.9-0.14,2.69-0.18,3.59c-4.84,0.02-9.68,0-14.51,0.02
	C-260.95,365.903-261.02,355.793-261.53,345.753z"/>
<path fill="#2B3789" d="M-243,345.753c1.44-0.01,2.88-0.02,4.33-0.02c-0.62,8.94-0.27,17.92-0.3,26.88
	c3.51,0.05,7.05,0.16,10.56-0.32c-0.04,1.21-0.06,2.42-0.07,3.64c-4.84,0-9.68-0.02-14.52,0.03
	C-242.48,365.913-242.45,355.793-243,345.753z"/>
<g>
	<path fill="#2B3789" d="M-227.65,375.953c4.86-10.23,8.69-20.91,13.29-31.25c4.41,10.35,8.22,20.95,12.81,31.22
		c-1.52,0.01-3.02,0.02-4.52,0.03c-0.91-2.91-2-5.76-3.16-8.58c-3.62,0-7.24,0-10.85-0.01c-1.21,2.8-2.34,5.64-3.24,8.57
		C-224.77,375.933-226.21,375.933-227.65,375.953z M-214.52,353.033c-1.45,3.77-2.93,7.53-4.45,11.28c2.88,0.02,5.76,0.02,8.64,0.02
		C-211.79,360.583-213.23,356.833-214.52,353.033z"/>
</g>
<path fill="#2B3789" d="M-196.74,347.353c2.74-2.17,6.41-1.95,9.67-1.52c-0.05,1.24-0.09,2.48-0.12,3.73
	c-2.08-0.56-4.39-1.2-6.39-0.05c-2.44,1.16-3.09,4.66-1.37,6.7c2.35,2.97,6.03,4.73,7.91,8.11c1.99,3.6,0.75,8.67-2.93,10.65
	c-3.08,1.88-6.81,1.33-10.17,0.79c-0.04-1.31-0.06-2.61-0.09-3.9c2.38,0.82,5.08,1.82,7.51,0.56c2.73-1.08,3.52-4.86,1.75-7.12
	c-2.22-2.76-5.57-4.41-7.52-7.41C-200.67,354.623-200.02,349.663-196.74,347.353z"/>
<linearGradient id="SVGID_3_" gradientUnits="userSpaceOnUse" x1="950.6896" y1="282.7962" x2="813.5363" y2="119.3432">
	<stop  offset="0" style="stop-color:#FBB714"/>
	<stop  offset="1" style="stop-color:#CA8C2F"/>
	<stop  offset="1" style="stop-color:#CA8C2F"/>
	<stop  offset="1" style="stop-color:#2D2A2B"/>
</linearGradient>
<path fill="url(#SVGID_3_)" d="M870.475,54.149c26.62-9.91,54.76-15.33,82.92-18.41c-2.29,1.25-4.98,1.12-7.44,1.8
	c-19.63,4.61-39.38,11.19-55.5,23.67c-11.4,8.72-20.31,20.73-24.85,34.38c-6.21,18.38-5.32,38.35-1.62,57.14
	c5.2,26,16.56,50.1,26.4,74.54c6.67,16.84,12.63,34.26,14.08,52.42c0.69,8.32-0.19,17.01-4.07,24.51
	c-3.94,7.87-11.16,13.85-19.37,16.85c-9.26,3.53-19.36,3.5-29.12,2.92c-17.92-1.04-35.44-5.75-52.12-12.22
	c-18.82-7.26-36.7-16.71-55.32-24.44c11.12-0.52,22.42,0.44,33.37-2.03c5.04-1.19,10.59-3.75,12.42-8.99
	c2.12-6.51-1.05-13.2-4.45-18.65c-7.31-11.06-17.48-19.89-28.03-27.75c-26.18-18.89-56.3-31.73-87.17-40.77
	c23.73-2.48,48.03-0.37,70.8,6.9c26.29,8.31,49.83,23.83,69.48,43c-8.43-18.16-16.31-36.87-19.44-56.77
	c-2.84-18.17-2.78-37.04,2.1-54.86c4.44-16.15,13.49-30.91,25.57-42.47C833.645,70.939,851.745,61.239,870.475,54.149z"/>
</svg>
