<svg version="1.2" xmlns="http://www.w3.org/2000/svg" viewBox="0 0 850 142" width="850" height="142">
	<title>Dự án mới</title>
	<style>
		.s0 { fill: #fdfdfe } 
	</style>
	<path id="AvidTravel" class="s0" aria-label="AvidTravel"  d="m62.3 13.6l52.5 111.8h-35.2l-17.3-36.6-17.9 36.5h-35.2zm142.3 35.8h-17.5l-25.3 55.5-24.9-55.3h-17.5l34.3 75.6h16.6zm25.8 76.2v-75.7h-15.8v75.7zm3.3-95.5l-11.2-11.4-11.2 11.4 11.2 11.2zm84.5 95.6v-111.8h-16v40.5c-2.9-1.7-6-3-9.3-4-3.4-0.9-6.9-1.4-10.5-1.4-5.4 0-10.4 1-15.2 3.1-4.7 2-8.8 4.8-12.4 8.3-3.5 3.5-6.3 7.6-8.4 12.3-2 4.7-3.1 9.7-3.1 15 0 5.5 1.1 10.6 3.1 15.4 2.1 4.8 4.9 8.9 8.5 12.5 3.6 3.6 7.8 6.4 12.5 8.5 4.8 2.1 9.8 3.1 15.1 3.1 3.7 0 7.1-0.4 10.4-1.3 3.3-0.9 6.4-2.2 9.3-3.9v3.7zm-16-53.4v31.8c-2.4 2.2-5.4 4-8.8 5.2-3.4 1.3-7 1.9-10.9 1.9-3.2 0-6.2-0.6-8.9-1.8-2.8-1.2-5.3-2.9-7.4-5.1-2.1-2.1-3.8-4.6-5-7.5-1.3-2.8-1.9-5.9-1.9-9.1 0-3.1 0.6-6 1.9-8.8 1.2-2.7 2.9-5.1 5-7.2 2.1-2.1 4.6-3.7 7.4-5 2.7-1.2 5.7-1.8 8.9-1.8 4 0 7.6 0.7 11 2 3.4 1.4 6.3 3.1 8.7 5.4zm111.8-42.4v-15.9l-85.8-0.1v15.9l34.8 0.1v95.8h16.1v-95.8zm58.5 43.4v-20.3c-2.1-1.2-4.4-2.1-6.8-2.8-2.4-0.7-5-1.1-7.7-1.1-6.2 0-12.3 2.4-18.3 7.2v-6.4h-16v75.8l15.9 0.1v-47.6c1.1-2.6 2.4-4.6 3.8-6.2 1.4-1.5 2.9-2.7 4.5-3.5 1.6-0.8 3.2-1.3 4.9-1.6 1.6-0.2 3.3-0.4 5-0.4 1.4 0 3.4 0.4 6.1 1 2.7 0.6 5.5 2.6 8.6 5.8zm52.4 35.6c-2.1 1.3-4.5 2.4-7.1 3.1-2.7 0.8-5.1 1.2-7.5 1.2-4.1 0-7.7-0.5-10.6-1.4-3-1-4.4-3.2-4.4-6.6 0-2.3 0.7-4.2 2.3-5.7 1.5-1.5 3.6-2.6 6.3-3.4 2.7-0.8 5.8-1.4 9.5-1.7 3.6-0.3 7.4-0.5 11.5-0.5zm16 17v-47.1c0-7.2-1.1-12.9-3.3-17.2-2.2-4.3-4.8-7.6-8-9.8-3.1-2.3-6.5-3.8-10.1-4.4-3.6-0.7-6.7-1.1-9.5-1.1-3.7 0-7.6 0.6-11.7 1.8-4 1.2-7.6 2.8-10.6 4.7l-6 20.1h1.6c4.4-4 8.8-6.8 12.9-8.3 4.2-1.6 8.6-2.3 13.2-2.3 3.1 0 5.6 0.4 7.6 1.1 2.1 0.7 3.7 1.8 4.8 3.3 1.2 1.4 2 3.2 2.4 5.4 0.5 2.2 0.7 4.7 0.7 7.4-8.3 0-15.4 0.7-21.1 2.1-5.7 1.4-10.3 3.2-13.9 5.6-3.6 2.3-6.1 5.1-7.7 8.3-1.5 3.1-2.3 6.5-2.3 10 0 3.1 0.7 6 2.1 8.6 1.4 2.6 3.2 4.9 5.6 6.9 2.3 2 5.1 3.6 8.2 4.7 3.2 1.2 6.6 1.7 10.2 1.7 2.9 0 6.1-0.4 9.5-1.4 3.5-0.9 6.6-2.3 9.4-4.1v4zm93.6-76.1h-17.4l-25.3 55.5-25-55.3h-17.4l34.2 75.6h16.7zm65.4 25h-40.9c1.8-3.8 4.6-6.9 8.4-9.4 3.9-2.5 8.2-3.7 13-3.7 2.7 0 5.2 0.4 7.5 1.1 2.4 0.8 4.4 1.7 6.2 2.9 1.8 1.2 3.2 2.6 4.2 4.2 1.1 1.6 1.6 3.2 1.6 4.9zm18.3 15.4c0.8-7.8 0.3-14.5-1.5-20-1.9-5.5-4.6-10.1-8.3-13.6-3.6-3.5-7.9-6.1-12.8-7.7-4.9-1.6-9.9-2.4-15-2.4-5.5 0-10.6 1-15.3 3.1-4.8 2.1-8.9 4.9-12.5 8.4-3.6 3.5-6.4 7.6-8.5 12.3-2.1 4.6-3.1 9.7-3.1 15 0 5.7 1.1 11.2 3.3 16.4 2.2 5.1 5.1 9.6 8.9 13.5 3.7 3.8 8.1 6.8 13.2 9.1 5 2.2 10.5 3.3 16.2 3.4 5.6 0 10.9-0.8 16.1-2.4 5.2-1.6 10-3.8 14.3-6.6v-16.6c-3.4 2.9-7.5 5.2-12.4 7-4.8 1.9-10 2.8-15.6 2.7-3.4 0-6.7-0.5-9.7-1.6-3.1-1.2-5.9-2.7-8.3-4.6-2.4-1.9-4.4-4.2-6.1-6.9-1.6-2.6-2.8-5.5-3.4-8.6zm56.2 32.2v-16.2c-2.5 1.8-5.3 3.2-8.5 4.3-3.2 1-6.2 1.5-9 1.5-3.2 0-5.8-1.4-8-4-2.1-2.7-3.2-6.1-3.2-10.3v-83h-16v87.8c0 3.6 0.7 7 2.1 10.1 1.4 3.1 3.3 5.7 5.8 8 2.4 2.3 5.3 4.1 8.6 5.4 3.3 1.3 6.9 1.9 10.7 1.9 2.8 0 5.8-0.5 9-1.5 3.2-1 6-2.3 8.5-4z"/>
</svg>